<svg id="Layer_1" xmlns="http://www.w3.org/2000/svg" viewBox="0 0 128 51"><style>.st0{fill:#cf0a2c}.st1{fill:#404041}.st2,.st3{fill:none;stroke:#252525;stroke-miterlimit:10}.st3{stroke:#b2b2b2}.st4{fill:#fff}</style><path class="st4" d="M71.6 8.7c-1.5 0-2.7 1.3-2.7 2.8v8.7c0 1.5 1.2 2.8 2.7 2.8h6c1.5 0 2.8-1.3 2.8-2.8v-8.7c0-1.5-1.2-2.8-2.8-2.8h-6zm5.4 2.4c.5 0 .9.4.9.9v7.6c0 .5-.4.9-.9.9h-4.6c-.5 0-.9-.4-.9-.9V12c0-.5.4-.9.9-.9H77zM92.5 22.9c1.6 0 2.9-1.3 2.9-2.9v-8.4c0-1.6-1.3-2.9-2.9-2.9h-8.7v14.1h8.7zm-6-2.5v-9.1h5.2c.5 0 .9.4.9.9v7.3c0 .5-.4.9-.9.9h-5.2zM97.9 11.1h4.5v11.8h2.6V11.1h4.4V8.8H97.9zM112.1 20.1c0 1.6 1.3 2.9 2.8 2.9h5.1c1.6 0 2.9-1.3 2.9-2.9V8.8h-2.7v10.8c0 .5-.4.9-.9.9h-3.6c-.5 0-.9-.4-.9-.9V8.8h-2.7v11.3zM116.3 6.4V4.1h-2.7v2.3h1.3zM121.5 6.4V4.1h-2.7v2.3h1.4zM112.2 39.3c0 1.6 1.3 2.9 2.8 2.9h5.1c1.6 0 2.9-1.3 2.9-2.9V28h-2.7v10.8c0 .5-.4.9-.9.9h-3.6c-.5 0-.9-.4-.9-.9V28h-2.7v11.3zM80.1 28l-4.6 9.8-4.6-9.8h-2v14.1h2.6v-7.5l3.3 7.5h1.4l3.3-7.5v7.5h2.6V28zM85.6 42.1h9.8v-2.6h-7.1V36h5.3v-2.2h-5.3v-3.5h6.9V28h-9.6zM97.8 30.3h4.6v11.8h2.7V30.3h4.7V28h-12zM34.3 2.4c-1.5 0-3.1.2-4.6.5h-.1c-1.5-.3-3-.5-4.6-.5-12.7 0-23 10.3-23 23 0 12.8 10.3 23.1 23.1 23.1 1.6 0 3.1-.2 4.6-.5h.1c1.5.3 3.1.5 4.6.5 12.7 0 23-10.4 23-23.1 0-12.7-10.4-23-23.1-23m-23.1 23c0-11.2 7.9-20.5 18.5-22.6v45.3c-10.6-2.2-18.5-11.5-18.5-22.7m23.1 22.5c-1 0-2-.1-3-.2C41 44.9 48.2 36 48.2 25.4S41 5.9 31.3 3.2c1-.1 2-.2 3-.2 12.3 0 22.4 10.1 22.4 22.4 0 12.4-10 22.5-22.4 22.5"/></svg>