<svg id="Layer_1" xmlns="http://www.w3.org/2000/svg" viewBox="0 0 200.8 76"><style>.st0{fill:#55565a}.st1{fill:#fff}.st2{fill:#cf0a2c}.st3{fill:none}</style><path class="st2" d="M50.2 10.5c-1.9 0-3.8.2-5.7.6h-.1c-1.9-.4-3.8-.6-5.7-.6C22.8 10.5 10 23.4 10 39.2 10 55 22.8 67.9 38.7 67.9c2 0 3.9-.2 5.7-.6h.1c1.9.4 3.8.6 5.7.6C66 67.9 78.8 55 78.8 39.2c0-15.8-12.8-28.7-28.6-28.7M21.4 39.2c0-13.9 9.9-25.5 23-28.1v56.2c-13.1-2.6-23-14.2-23-28.1m28.8 27.9c-1.3 0-2.5-.1-3.8-.3 12.1-3.4 20.9-14.5 20.9-27.6S58.5 15 46.4 11.6c1.2-.2 2.5-.3 3.8-.3C65.5 11.3 78 23.9 78 39.2c0 15.4-12.5 27.9-27.8 27.9"/><path class="st0" d="M168.4 46.2c0 2.5 2.1 4.7 4.6 4.7h8.3c2.6 0 4.7-2.1 4.7-4.7V27.7h-4.4v17.6c0 .8-.6 1.5-1.5 1.5h-5.9c-.8 0-1.5-.7-1.5-1.5V27.7h-4.3v18.5zM116 27.7l-7.5 16.1-7.4-16.1h-3.3v23h4.3V38.5l5.3 12.2h2.3l5.3-12.2v12.2h4.3v-23zM125 50.7h16v-4h-11.5v-5.8h8.5v-3.6h-8.5v-5.7h11.3v-3.9H125zM144.9 31.6h7.6v19.1h4.4V31.6h7.6v-3.9h-19.6z"/></svg>