<svg id="Layer_1" xmlns="http://www.w3.org/2000/svg" viewBox="0 0 681 90"><style>.st0{fill:#55565a}.st1{fill:#fff}.st2{fill:#cf0a2c}.st3{fill:none}</style><path class="st1" d="M44.7 7.8H39c-17.4 0-31.5 14-31.5 31.1C7.5 56.1 21.6 70 39 70h11.4c17.3 0 31.5-14 31.5-31.1 0-17.2-14.1-31.1-31.5-31.1h-5.7"/><path class="st2" d="M50.7 67.5c-1.3 0-2.6-.1-3.9-.3 12.4-3.5 21.5-14.9 21.5-28.4 0-13.5-9.1-24.9-21.5-28.4 1.3-.2 2.6-.3 3.9-.3 15.7 0 28.5 12.8 28.5 28.6S66.4 67.5 50.7 67.5M21.1 38.9c0-14.3 10.1-26.1 23.6-28.9v57.7C31.3 65 21.1 53.1 21.1 38.9M50.7 9.4c-2 0-4 .2-6 .6-1.9-.4-3.9-.6-5.9-.6-16.3 0-29.5 13.2-29.5 29.5s13.2 29.5 29.5 29.5c2 0 4-.2 5.9-.6 1.9.4 4 .6 6 .6C66.8 68.4 80 55.1 80 38.9 80 22.6 66.8 9.4 50.7 9.4"/><path class="st0" d="M98 48h3.3v-9.5l4.8 9.5h1.5l4.8-9.5V48h3.3V30.1h-2.5l-6.4 12.5-6.4-12.5H98V48zm24.4 0h3.5V30.1h-3.5V48zm21.2 0c2 0 3.6-1.6 3.6-3.6V33.7c0-2-1.6-3.6-3.6-3.6h-11.1V48h11.1zm-7.6-3.2V33.3h6.6c.7 0 1.2.5 1.2 1.1v9.3c0 .6-.5 1.1-1.2 1.1H136zm28.4 3.2c2 0 3.6-1.6 3.6-3.6V33.7c0-2-1.6-3.6-3.6-3.6h-11.1V48h11.1zm-7.6-3.2V33.3h6.6c.7 0 1.2.5 1.2 1.1v9.3c0 .6-.5 1.1-1.2 1.1h-6.6zm29.9 3.2v-3.2h-9V30.1h-3.4V48h12.4zm4.5 0h12.5v-3.2h-9v-4.5h6.7v-2.8h-6.7v-4.4h8.8v-3h-12.3V48zm25.8 0h12.5v-3.2h-9v-4.5h6.7v-2.8h-6.7v-4.4h8.8v-3H217V48zm16.1 0h3.6l1.7-4.6h6.5l1.7 4.6h3.6l-6.9-17.9H240L233.1 48zm6.3-7.4l2.3-6.2 2.3 6.2h-4.6zm15 4.1c0 2 1.6 3.6 3.6 3.6h6.5c2.1 0 3.7-1.6 3.7-3.6v-2.9c0-1.4-.9-2.6-2.2-3l-7.5-2c-.4-.1-.7-.6-.7-1v-1.7c0-.6.6-1.2 1.2-1.2h4.7c.7 0 1.2.5 1.2 1.1v1.5h3.3v-2.2c0-2-1.6-3.6-3.7-3.6H258c-2 0-3.6 1.6-3.6 3.6v2.9c0 1.4.8 2.6 2.1 2.9l7.5 2c.4.1.7.6.7 1V44c0 .6-.5 1.2-1.2 1.2h-4.7c-.6 0-1.2-.5-1.2-1.1v-1.5h-3.3v2.1zm17.8-11.6h6V48h3.4V33.1h5.9v-3h-15.3v3zm25.8 0h6V48h3.4V33.1h5.9v-3H298v3zM317.9 48h12.5v-3.2h-9v-4.5h6.7v-2.8h-6.7v-4.4h8.8v-3h-12.3V48zm17.7-3.3c0 2 1.6 3.6 3.7 3.6h6.8c2 0 3.6-1.6 3.6-3.6v-2.4h-3.3V44c0 .6-.5 1.1-1.1 1.1h-5.1c-.6 0-1.1-.5-1.1-1.1v-9.9c0-.6.5-1.1 1.1-1.1h5.1c.7 0 1.1.5 1.1 1.1v1.7h3.3v-2.4c0-2-1.6-3.6-3.6-3.6h-6.8c-2 0-3.7 1.6-3.7 3.6v11.3zm20 3.3h3.4v-7.5h7.4V48h3.4V30.1h-3.4v7.2H359v-7.2h-3.4V48zm20.8 0h3.4V35.2l7.9 8V48h3.4V30.1h-3.4v8.6l-8.6-8.6h-2.8V48zm21.4 0h3.5V30.1h-3.5V48zm9.8-3.3c0 2 1.6 3.6 3.7 3.6h6.8c2 0 3.6-1.6 3.6-3.6v-2.4h-3.3V44c0 .6-.5 1.1-1.1 1.1h-5.1c-.6 0-1.1-.5-1.1-1.1v-9.9c0-.6.5-1.1 1.1-1.1h5.1c.7 0 1.1.5 1.1 1.1v1.7h3.3v-2.4c0-2-1.6-3.6-3.6-3.6h-6.8c-2 0-3.7 1.6-3.7 3.6v11.3zm18.2 3.3h3.6l1.7-4.6h6.5l1.7 4.6h3.6L436 30.1h-3.3L425.8 48zm6.3-7.4l2.3-6.2 2.3 6.2h-4.6zM460 48v-3.2h-9V30.1h-3.4V48H460zm12.2-3.3c0 2 1.6 3.6 3.6 3.6h7c2.1 0 3.7-1.6 3.7-3.6V30.1H483V44c0 .6-.5 1.1-1.2 1.1h-5.1c-.7 0-1.2-.5-1.2-1.1V30.1h-3.4v14.6zm20.6 3.3h3.4V35.2l7.9 8V48h3.4V30.1h-3.4v8.6l-8.6-8.6h-2.8V48zm21.4 0h3.5V30.1h-3.5V48zm8.3-17.9l6.9 17.9h2.8l6.9-17.9h-3.7l-4.6 12.7-4.6-12.7h-3.7zM543.6 48h12.5v-3.2h-9v-4.5h6.7v-2.8h-6.7v-4.4h8.8v-3h-12.3V48zm18 0h3.4v-6.5h2.4L572 48h3.9l-4.7-6.7h.3c1.6-.3 2.8-1.8 2.8-3.5v-4.2c0-2-1.6-3.6-3.6-3.6h-9v18zm3.5-9.3V33h4.3c.9 0 1.5.7 1.5 1.5v2.7c0 .8-.6 1.5-1.5 1.5h-4.3zm15.3 6c0 2 1.6 3.6 3.6 3.6h6.5c2.1 0 3.7-1.6 3.7-3.6v-2.9c0-1.4-.9-2.6-2.2-3l-7.5-2c-.4-.1-.7-.6-.7-1v-1.7c0-.6.6-1.2 1.2-1.2h4.7c.7 0 1.2.5 1.2 1.1v1.5h3.3v-2.2c0-2-1.6-3.6-3.7-3.6H584c-2 0-3.6 1.6-3.6 3.6v2.9c0 1.4.8 2.6 2.1 2.9l7.5 2c.4.1.7.6.7 1V44c0 .6-.5 1.2-1.2 1.2h-4.7c-.6 0-1.2-.5-1.2-1.1v-1.5h-3.3v2.1zm19.9 3.3h3.5V30.1h-3.5V48zm8.2-14.9h6V48h3.4V33.1h5.9v-3h-15.3v3zm24.4 7.7V48h3.4v-7.3l6.4-10.7h-3.9l-4.2 7.4-4.2-7.4h-3.9l6.4 10.8zM102.5 66.2h2.1l4.5 11.6h-2.3l-1.1-3h-4.2l-1.1 3H98l4.5-11.6zm2.6 6.8l-1.5-4-1.5 4h3zM111.2 66.2h1.8l5.6 5.6v-5.6h2.2v11.6h-2.2v-3.1l-5.1-5.1v8.3h-2.2V66.2zM124 66.2h2.2v5l4.9-5h2.6l-5.6 5.8 5.7 5.8H131l-4.8-4.9v4.9H124V66.2zM139.2 66.2h2.1l4.5 11.6h-2.3l-1.1-3h-4.2l-1.1 3h-2.3l4.4-11.6zm2.5 6.8l-1.5-4-1.5 4h3zM147.8 66.2h5.8c.3 0 .6.1.9.2.3.1.5.3.7.5.2.2.4.5.5.7.1.3.2.6.2.9v2.7c0 .6-.2 1-.5 1.5-.3.4-.8.7-1.3.8h-.2l3 4.3h-2.6l-2.9-4.2h-1.6v4.2h-2.2V66.2zm5 5.6c.3 0 .5-.1.7-.3.2-.2.3-.4.3-.7v-1.7c0-.3-.1-.5-.3-.7-.2-.2-.4-.3-.7-.3H150v3.7h2.8zM162.6 66.2h2.1l4.5 11.6h-2.3l-1.1-3h-4.2l-1.1 3h-2.3l4.4-11.6zm2.6 6.8l-1.5-4-1.5 4h3z"/><g><path class="st0" d="M176.5 68.1c0-.3.1-.6.2-.9.1-.3.3-.5.5-.7.2-.2.5-.4.8-.5s.6-.2.9-.2h4.4c.3 0 .6.1.9.2s.5.3.7.5c.2.2.4.5.5.7.1.3.2.6.2.9v1.6h-2.1v-1.1c0-.2-.1-.4-.2-.5-.1-.1-.3-.2-.5-.2h-3.3c-.2 0-.4.1-.5.2-.1.2-.2.3-.2.5V75c0 .2.1.4.2.5s.3.2.5.2h3.3c.2 0 .4-.1.5-.2s.2-.3.2-.5v-1.1h2.1v1.5c0 .3-.1.6-.2.9-.1.3-.3.5-.5.7-.2.2-.5.4-.7.5s-.6.2-.9.2h-4.4c-.3 0-.6-.1-.9-.2s-.5-.3-.8-.5c-.2-.2-.4-.5-.5-.7-.1-.3-.2-.6-.2-.9v-7.3zM191.4 66h2.1l4.5 11.6h-2.3l-1.1-3h-4.2l-1.1 3H187l4.4-11.6zm2.6 6.8l-1.5-4-1.5 4h3zM199.7 66h1.6l4.1 8.1 4.1-8.1h1.6v11.6H209v-6.2l-3.1 6.2h-1l-3.1-6.2v6.2h-2.1V66zM214 66h5.8c.3 0 .6.1.9.2.3.1.5.3.8.5.2.2.4.5.5.7.1.3.2.6.2.9v2.8c0 .3-.1.6-.2.9-.1.3-.3.5-.5.7-.2.2-.5.4-.8.5-.3.1-.6.2-.9.2h-3.6v4.1H214V66zm5 5.7c.3 0 .5-.1.7-.3s.3-.4.3-.7v-1.8c0-.3-.1-.5-.3-.7-.2-.2-.4-.3-.7-.3h-2.8v3.8h2.8zM224.3 66h2.2v9c0 .2.1.4.2.5s.3.2.5.2h3.3c.2 0 .4-.1.5-.2s.2-.3.2-.5v-9h2.2v9.5c0 .3-.1.6-.2.9-.1.3-.3.5-.5.7-.2.2-.5.4-.8.5-.3.1-.6.2-.9.2h-4.5c-.3 0-.6-.1-.9-.2s-.5-.3-.7-.5c-.2-.2-.4-.5-.5-.7-.1-.3-.2-.6-.2-.9V66zM236 74.1h2.1v1c0 .2.1.4.2.5.1.1.3.2.5.2h3.1c.2 0 .4-.1.5-.2.1-.1.2-.3.2-.5V74c0-.1 0-.3-.1-.4-.1-.1-.2-.2-.3-.2l-4.9-1.3c-.4-.1-.8-.3-1-.7-.2-.4-.4-.8-.4-1.2v-1.9c0-.3.1-.6.2-.9s.3-.5.5-.7c.2-.2.5-.4.7-.5.3-.1.6-.2.9-.2h4.2c.3 0 .6.1.9.2s.5.3.8.5c.2.2.4.5.5.7.1.3.2.6.2.9v1.4h-2.1v-1c0-.2-.1-.4-.2-.5-.1-.1-.3-.2-.5-.2h-3c-.2 0-.4.1-.5.2-.2.2-.2.3-.2.5v1.1c0 .1 0 .3.1.4.1.1.2.2.3.2l4.9 1.3c.4.1.8.4 1 .7.3.4.4.8.4 1.2v1.9c0 .3-.1.6-.2.9-.1.3-.3.5-.5.7-.2.2-.5.4-.8.5s-.6.2-.9.2h-4.2c-.3 0-.6-.1-.9-.2-.3-.1-.5-.3-.7-.5-.2-.2-.4-.5-.5-.7-.1-.3-.2-.6-.2-.9v-1.4z"/></g></svg>