<svg id="Layer_1" xmlns="http://www.w3.org/2000/svg" viewBox="0 0 527.7 83"><style>.st0{fill:#55565a}.st1{fill:#fff}.st2{fill:#cf0a2c}.st3{fill:none}</style><path class="st2" d="M46.1 3c-2 0-4.1.2-6.1.6-1.9-.4-3.9-.6-6-.6C17.4 3 4 16.4 4 33s13.4 30 30 30c2.1 0 4.1-.2 6-.6 2 .4 4 .6 6.1.6C62.6 62.9 76 49.5 76 33 76 16.4 62.6 3 46.1 3m-30 30c0-14.5 10.3-26.6 24-29.4v58.7c-13.7-2.7-24-14.8-24-29.3m30 29.1c-1.3 0-2.6-.1-3.9-.3C54.8 58.3 64.1 46.7 64.1 33c0-13.7-9.2-25.3-21.9-28.9 1.3-.2 2.6-.3 3.9-.3 16 0 29 13.1 29 29.1.1 16.1-12.9 29.2-29 29.2"/><path class="st0" d="M96.2 70h1.6l3.4 8.9h-1.8l-.9-2.3h-3.2l-.9 2.3h-1.8l3.6-8.9zm2 5.2l-1.2-3-1.1 3.1h2.3zM102.9 70h1.4l4.3 4.3V70h1.7v8.9h-1.7v-2.4l-3.9-3.9V79H103v-9zM112.7 70h1.7v3.9l3.8-3.9h2l-4.3 4.4 4.3 4.5H118l-3.7-3.8v3.8h-1.7V70zM124.4 70h1.6l3.4 8.9h-1.8l-.9-2.3h-3.2l-.9 2.3h-1.8l3.6-8.9zm1.9 5.2l-1.1-3.1-1.1 3.1h2.2zM131 70h4.5c.3 0 .5 0 .7.1.2.1.4.2.6.4.2.2.3.4.4.6.1.2.1.4.1.7v2.1c0 .4-.1.8-.4 1.1-.3.3-.6.5-1 .6h-.1l2.3 3.3h-2l-2.3-3.2h-1.2v3.2H131V70zm3.8 4.3c.2 0 .4-.1.6-.2.1-.1.2-.3.2-.5v-1.3c0-.2-.1-.4-.2-.5-.1-.2-.3-.2-.6-.2h-2.1v2.8h2.1zM142.4 70h1.6l3.4 8.9h-1.8l-.9-2.3h-3.2l-.9 2.3h-1.8l3.6-8.9zm1.9 5.2l-1.1-3.1-1.1 3.1h2.2zM153 71.5c0-.3 0-.5.1-.7.1-.2.2-.4.4-.6.2-.2.4-.3.6-.4.2-.1.5-.1.7-.1h3.4c.3 0 .5 0 .7.1.2.1.4.2.6.4.2.2.3.4.4.6.1.2.1.4.1.7v1.2h-1.6v-.8c0-.1-.1-.3-.2-.4-.1-.1-.2-.2-.4-.2h-2.5c-.2 0-.3.1-.4.2-.1.1-.2.2-.2.4v4.9c0 .1.1.3.2.4.1.1.2.2.4.2h2.5c.2 0 .3-.1.4-.2.1-.1.2-.2.2-.4V76h1.6v1.2c0 .3 0 .5-.1.7-.1.2-.2.4-.4.6-.2.2-.4.3-.6.4-.2.1-.5.1-.7.1h-3.4c-.3 0-.5 0-.7-.1-.2-.1-.4-.2-.6-.4-.2-.2-.3-.4-.4-.6-.1-.2-.1-.4-.1-.7v-5.7zM164.5 69.9h1.6l3.5 8.9h-1.8l-.9-2.3h-3.2l-.9 2.3H161l3.5-8.9zm1.9 5.2l-1.1-3.1-1.1 3.1h2.2zM170.8 69.9h1.2l3.2 6.2 3.2-6.2h1.2v8.9H178V74l-2.4 4.7h-.8l-2.4-4.7v4.7h-1.6v-8.8zM181.8 69.9h4.5c.3 0 .5 0 .7.1.2.1.4.2.6.4.2.2.3.4.4.6.1.2.1.4.1.7v2.2c0 .3 0 .5-.1.7-.1.2-.2.4-.4.6-.2.2-.4.3-.6.4-.2.1-.5.1-.7.1h-2.8v3.1h-1.7v-8.9zm3.8 4.4c.2 0 .4-.1.5-.2.1-.2.2-.3.2-.5v-1.4c0-.2-.1-.4-.2-.5-.1-.2-.3-.2-.5-.2h-2.1v2.9h2.1zM189.7 69.9h1.7v6.9c0 .1.1.3.2.4.1.1.2.2.4.2h2.5c.2 0 .3-.1.4-.2.1-.1.2-.2.2-.4v-6.9h1.7v7.3c0 .3 0 .5-.1.7-.1.2-.2.4-.4.6-.2.2-.4.3-.6.4-.2.1-.5.1-.7.1h-3.5c-.3 0-.5 0-.7-.1-.2-.1-.4-.2-.6-.4-.2-.2-.3-.4-.4-.6-.1-.2-.1-.4-.1-.7v-7.3zM198.6 76h1.6v.7c0 .1.1.3.2.4.1.1.3.2.4.2h2.4c.2 0 .3-.1.4-.2.1-.1.2-.3.2-.4v-.8c0-.1 0-.2-.1-.3-.1-.1-.1-.2-.3-.2l-3.7-1c-.3-.1-.6-.3-.8-.5-.2-.3-.3-.6-.3-.9v-1.5c0-.3 0-.5.1-.7.1-.2.2-.4.4-.6.2-.2.4-.3.6-.4.2-.1.4-.1.7-.1h3.2c.3 0 .5 0 .7.1.2.1.4.2.6.4.2.2.3.4.4.6.1.2.1.4.1.7v1.1h-1.6v-.7c0-.1-.1-.3-.2-.4-.1-.1-.2-.2-.4-.2h-2.3c-.2 0-.3.1-.4.2-.1.1-.2.3-.2.4v.8c0 .1 0 .2.1.3.1.1.1.2.3.2l3.7 1c.3.1.6.3.8.6.2.3.3.6.3.9v1.4c0 .3 0 .5-.1.7-.1.2-.2.4-.4.6-.2.2-.4.3-.6.4-.2.1-.5.1-.7.1h-3.2c-.3 0-.5 0-.7-.1-.2-.1-.4-.2-.6-.4-.2-.2-.3-.4-.4-.6-.1-.2-.1-.4-.1-.7V76zM515.7 49.3V55h2.7v-5.7l5-8.4h-3l-3.3 5.8-3.3-5.8h-3l4.9 8.4zm-19.3-6.1h4.7V55h2.7V43.2h4.7v-2.4h-12.1v2.4zM489.9 55h2.8V40.8h-2.8V55zm-15.8-2.6c0 1.6 1.3 2.9 2.9 2.9h5.1c1.6 0 2.9-1.3 2.9-2.9v-2.3c0-1.1-.7-2.1-1.7-2.4l-5.9-1.6c-.3-.1-.5-.4-.5-.8V44c0-.5.4-.9.9-.9h3.7c.5 0 .9.4.9.9v1.2h2.6v-1.7c0-1.6-1.3-2.9-2.9-2.9H477c-1.6 0-2.9 1.3-2.9 2.9v2.3c0 1.1.6 2 1.7 2.3l5.9 1.6c.3.1.5.4.5.8v1.4c0 .5-.4.9-.9.9h-3.7c-.5 0-.9-.4-.9-.9v-1.2h-2.6v1.7zM462 47.6v-4.5h3.4c.7 0 1.2.6 1.2 1.2v2.1c0 .6-.5 1.2-1.2 1.2H462zm-2.7 7.4h2.7v-5.1h1.9l3.6 5.1h3.1l-3.7-5.3h.2c1.3-.2 2.2-1.4 2.2-2.7v-3.3c0-1.6-1.3-2.9-2.9-2.9h-7.1V55zM445 55h9.9v-2.5h-7.1v-3.6h5.3v-2.2h-5.3v-3.5h7v-2.4H445V55zm-16.7-14.2l5.4 14.2h2.2l5.4-14.2h-2.9l-3.6 10-3.6-10h-2.9zM421.8 55h2.8V40.8h-2.8V55zm-17 0h2.7V44.9l6.3 6.3V55h2.7V40.8h-2.7v6.8l-6.8-6.8h-2.2V55zm-16.3-2.6c0 1.6 1.3 2.9 2.9 2.9h5.5c1.6 0 2.9-1.3 2.9-2.9V40.8h-2.7v11c0 .5-.4.9-.9.9h-4c-.5 0-.9-.4-.9-.9v-11h-2.7v11.6zm-9.6 2.6v-2.5h-7.1V40.8h-2.7V55h9.8zm-22.1-5.9l1.8-4.9 1.8 4.9h-3.6zm-4.9 5.9h2.8l1.4-3.7h5.1l1.4 3.7h2.8L360 40.8h-2.6L351.9 55zm-14.4-2.6c0 1.6 1.3 2.9 2.9 2.9h5.4c1.6 0 2.9-1.3 2.9-2.9v-1.9H346v1.3c0 .5-.4.9-.9.9h-4c-.5 0-.9-.4-.9-.9V44c0-.5.4-.9.9-.9h4c.5 0 .9.4.9.9v1.3h2.6v-1.9c0-1.6-1.3-2.9-2.9-2.9h-5.4c-1.6 0-2.9 1.3-2.9 2.9v9zm-7.8 2.6h2.8V40.8h-2.8V55zm-17 0h2.7V44.9l6.3 6.3V55h2.7V40.8h-2.7v6.8l-6.8-6.8h-2.2V55zm-16.4 0h2.7v-5.9h5.9V55h2.7V40.8h-2.7v5.7H299v-5.7h-2.7V55zm-15.9-2.6c0 1.6 1.3 2.9 2.9 2.9h5.4c1.6 0 2.9-1.3 2.9-2.9v-1.9H289v1.3c0 .5-.4.9-.9.9h-4c-.5 0-.9-.4-.9-.9V44c0-.5.4-.9.9-.9h4c.5 0 .9.4.9.9v1.3h2.6v-1.9c0-1.6-1.3-2.9-2.9-2.9h-5.4c-1.6 0-2.9 1.3-2.9 2.9v9zM266.5 55h9.9v-2.5h-7.1v-3.6h5.3v-2.2h-5.3v-3.5h7v-2.4h-9.7V55zm-15.8-11.8h4.7V55h2.7V43.2h4.7v-2.4h-12.1v2.4zm-20.3 0h4.7V55h2.7V43.2h4.7v-2.4h-12.1v2.4zm-14.2 9.2c0 1.6 1.3 2.9 2.9 2.9h5.1c1.6 0 2.9-1.3 2.9-2.9v-2.3c0-1.1-.7-2.1-1.7-2.4l-5.9-1.6c-.3-.1-.5-.4-.5-.8V44c0-.5.4-.9.9-.9h3.7c.5 0 .9.4.9.9v1.2h2.6v-1.7c0-1.6-1.3-2.9-2.9-2.9h-5.1c-1.6 0-2.9 1.3-2.9 2.9v2.3c0 1.1.6 2 1.7 2.3l5.9 1.6c.3.1.5.4.5.8v1.4c0 .5-.4.9-.9.9h-3.7c-.5 0-.9-.4-.9-.9v-1.2h-2.6v1.7zm-11.8-3.3l1.8-4.9 1.8 4.9h-3.6zm-5 5.9h2.8l1.4-3.7h5.1l1.4 3.7h2.8l-5.5-14.2h-2.6L199.4 55zm-12.7 0h9.9v-2.5h-7.1v-3.6h5.3v-2.2h-5.3v-3.5h7v-2.4h-9.7V55zm-20.4 0h9.9v-2.5H169v-3.6h5.3v-2.2H169v-3.5h7v-2.4h-9.7V55zm-3.6 0v-2.5h-7.1V40.8h-2.7V55h9.8zm-23.6-2.5v-9.1h5.2c.5 0 .9.4.9.9v7.3c0 .5-.4.9-.9.9h-5.2zm6 2.5c1.6 0 2.9-1.3 2.9-2.9v-8.4c0-1.6-1.3-2.9-2.9-2.9h-8.7V55h8.7zm-22.5-2.5v-9.1h5.2c.5 0 .9.4.9.9v7.3c0 .5-.4.9-.9.9h-5.2zm6 2.5c1.6 0 2.9-1.3 2.9-2.9v-8.4c0-1.6-1.3-2.9-2.9-2.9h-8.7V55h8.7zm-16.8 0h2.8V40.8h-2.8V55zm-19.2 0h2.6v-7.5L99 55h1.2l3.8-7.5V55h2.6V40.8h-2l-5.1 9.9-5.1-9.9h-1.9V55zM474 25.9h2.8V11.7H474v14.2zm-15.8-2.6c0 1.6 1.3 2.9 2.9 2.9h5.1c1.6 0 2.9-1.3 2.9-2.9V21c0-1.1-.7-2-1.7-2.3l-5.9-1.6c-.3-.1-.5-.4-.5-.8v-1.4c0-.5.4-.9.9-.9h3.7c.5 0 .9.4.9.9V16h2.6v-1.7c0-1.6-1.3-2.9-2.9-2.9h-5.1c-1.6 0-2.9 1.3-2.9 2.9v2.3c0 1.1.7 2 1.7 2.3l5.9 1.6c.3.1.5.4.5.8v1.3c0 .5-.4.9-.9.9h-3.7c-.5 0-.9-.4-.9-.9v-1.2h-2.6v1.9zm-13.8 2.6h9.9v-2.5h-7.1v-3.6h5.3v-2.2h-5.3v-3.5h7v-2.4h-9.7v14.2zm-15.8-11.8h4.7v11.8h2.7V14.1h4.7v-2.4h-12.1v2.4zm-6.5 11.8h2.8V11.7h-2.8v14.2zm-15.8-2.6c0 1.6 1.3 2.9 2.9 2.9h5.1c1.6 0 2.9-1.3 2.9-2.9V21c0-1.1-.7-2-1.7-2.3l-5.9-1.6c-.3-.1-.5-.4-.5-.8v-1.4c0-.5.4-.9.9-.9h3.7c.5 0 .9.4.9.9V16h2.6v-1.7c0-1.6-1.3-2.9-2.9-2.9h-5.1c-1.6 0-2.9 1.3-2.9 2.9v2.3c0 1.1.6 2 1.7 2.3l5.9 1.6c.3.1.5.4.5.8v1.3c0 .5-.4.9-.9.9h-3.7c-.5 0-.9-.4-.9-.9v-1.2h-2.6v1.9zm-12.1-4.8V14h3.4c.7 0 1.2.6 1.2 1.2v2.1c0 .6-.5 1.2-1.2 1.2h-3.4zm-2.7 7.4h2.7v-5.1h1.9l3.6 5.1h3.1l-3.7-5.3h.2c1.3-.2 2.2-1.4 2.2-2.7v-3.3c0-1.6-1.3-2.9-2.9-2.9h-7.1v14.2zm-14.2 0h9.9v-2.5H380v-3.6h5.3v-2.2H380v-3.5h7v-2.4h-9.7v14.2zm-16.8-14.2l5.4 14.2h2.2l5.4-14.2h-2.9l-3.6 10-3.6-10h-2.9zM354 25.9h2.8V11.7H354v14.2zm-17 0h2.7V15.7L346 22v3.8h2.7V11.7H346v6.8l-6.8-6.8H337v14.2zm-16.2-2.6c0 1.6 1.3 2.9 2.9 2.9h5.5c1.6 0 2.9-1.3 2.9-2.9V11.7h-2.7v11c0 .5-.4.9-.9.9h-4c-.5 0-.9-.4-.9-.9v-11h-2.7v11.6zm-21.7 2.6h2.7v-6l5.9 6h3.4l-6.9-7.1 6.8-7h-3.2l-6 6.1v-6.1h-2.7v14.1zm-8 0h2.8V11.7h-2.8v14.2zm-17 0h2.7V15.7l6.3 6.3v3.8h2.7V11.7h-2.7v6.8l-6.8-6.8h-2.2v14.2zm-15.7 0h2.7v-6l5.9 6h3.4l-6.9-7.1 6.8-7h-3.2l-6 6.1v-6.1h-2.7v14.1zm-14.2 0h9.9v-2.5H247v-3.6h5.3v-2.2H247v-3.5h7v-2.4h-9.7v14.2zm-15.8-11.8h4.7v11.8h2.7V14.1h4.7v-2.4h-12.1v2.4zm-20.9 9.2c0 1.6 1.3 2.9 2.9 2.9h5.5c1.6 0 2.9-1.3 2.9-2.9V11.7h-2.7v11c0 .5-.4.9-.9.9h-4c-.5 0-.9-.4-.9-.9v-11h-2.7v11.6zm-15.8 0c0 1.6 1.3 2.9 2.9 2.9h5.4c1.6 0 2.9-1.3 2.9-2.9v-4.4h-5.3V21h2.6v1.8c0 .5-.4.9-.9.9h-4c-.5 0-.9-.4-.9-.9V15c0-.5.4-.9.9-.9h4c.5 0 .9.4.9.9v1.3h2.6v-1.9c0-1.6-1.3-2.9-2.9-2.9h-5.4c-1.6 0-2.9 1.3-2.9 2.9v8.9zm-8.3-9.3c.5 0 .9.4.9.9v7.8c0 .5-.4.9-.9.9h-4.8c-.5 0-.9-.4-.9-.9v-7.8c0-.5.4-.9.9-.9h4.8zm-5.5-2.5c-1.6 0-2.9 1.3-2.9 2.9v8.9c0 1.6 1.3 2.9 2.9 2.9h6.3c1.6 0 2.9-1.3 2.9-2.9v-8.9c0-1.6-1.3-2.9-2.9-2.9h-6.3zm-16.4 11.9v-9.1h5.2c.5 0 .9.4.9.9v7.3c0 .5-.4.9-.9.9h-5.2zm6 2.5c1.6 0 2.9-1.3 2.9-2.9v-8.4c0-1.6-1.3-2.9-2.9-2.9h-8.7v14.2h8.7zM140.4 20l1.8-4.9L144 20h-3.6zm-5 5.9h2.8l1.4-3.7h5.1l1.4 3.7h2.8l-5.5-14.2h-2.6l-5.4 14.2zm-12.7-11.8h4.7v11.8h2.7V14.1h4.7v-2.4h-12.1v2.4zm-10.5 4.4V14h3.4c.7 0 1.2.6 1.2 1.2v2.1c0 .6-.5 1.2-1.2 1.2h-3.4zm-2.7 7.4h2.7v-5.1h1.9l3.6 5.1h3.1l-3.7-5.3h.2c1.3-.2 2.2-1.4 2.2-2.7v-3.3c0-1.6-1.3-2.9-2.9-2.9h-7.1v14.2zM101 14c.5 0 .9.4.9.9v7.8c0 .5-.4.9-.9.9h-4.8c-.5 0-.9-.4-.9-.9v-7.8c0-.5.4-.9.9-.9h4.8zm-5.6-2.5c-1.6 0-2.9 1.3-2.9 2.9v8.9c0 1.6 1.3 2.9 2.9 2.9h6.3c1.6 0 2.9-1.3 2.9-2.9v-8.9c0-1.6-1.3-2.9-2.9-2.9h-6.3zM197.3 6.7h-2.8v2.4h5.5V6.7zM292.4 6.7h-1.3v2.4h2.7V6.7zM355.4 6.7H354v2.4h2.8V6.7zM323.7 6.7h-1.4v2.4h2.7V6.7zM328.9 6.7h-1.3v2.4h2.7V6.7zM423.5 6.7h-1.4v2.4h2.8V6.7zM475.4 6.7H474v2.4h2.7V6.7z"/></svg>