<svg id="Layer_1" xmlns="http://www.w3.org/2000/svg" viewBox="0 0 681 90"><style>.st0{fill:#55565a}.st1{fill:#fff}.st2{fill:#cf0a2c}.st3{fill:none}</style><path class="st0" d="M100 29.9c-1.9 0-3.5 1.6-3.5 3.5v11c0 1.9 1.6 3.5 3.5 3.5h7.7c1.9 0 3.5-1.6 3.5-3.5v-11c0-1.9-1.6-3.5-3.5-3.5H100zm6.8 3.1c.6 0 1.1.5 1.1 1.1v9.6c0 .6-.5 1.1-1.1 1.1h-5.9c-.6 0-1.1-.5-1.1-1.1v-9.6c0-.6.5-1.1 1.1-1.1h5.9zm10.4 14.6h3.3v-6.3h2.3l4.4 6.3h3.8l-4.6-6.5h.2c1.6-.3 2.7-1.7 2.7-3.4v-4c0-1.9-1.6-3.5-3.5-3.5H117v17.4zm3.3-9v-5.5h4.1c.9 0 1.5.7 1.5 1.5v2.6c0 .8-.6 1.4-1.5 1.4h-4.1zm12.9-5.5h5.8v14.5h3.3V33.1h5.8v-2.9h-14.9v2.9zM149 47.6h3.5l1.7-4.5h6.3l1.7 4.5h3.5L159 30.2h-3.2L149 47.6zm6.1-7.2l2.2-6 2.2 6h-4.4zm33.2 7.2c2 0 3.5-1.6 3.5-3.5V33.7c0-1.9-1.6-3.5-3.5-3.5h-10.7v17.4h10.7zm-7.4-3.1V33.3h6.4c.7 0 1.1.5 1.1 1.1v9c0 .6-.5 1.1-1.1 1.1h-6.4zM201 29.9c-1.9 0-3.5 1.6-3.5 3.5v11c0 1.9 1.6 3.5 3.5 3.5h7.7c1.9 0 3.5-1.6 3.5-3.5v-11c0-1.9-1.6-3.5-3.5-3.5H201zm6.8 3.1c.6 0 1.1.5 1.1 1.1v9.6c0 .6-.5 1.1-1.1 1.1h-5.9c-.6 0-1.1-.5-1.1-1.1v-9.6c0-.6.5-1.1 1.1-1.1h5.9zm10.1 11.4c0 1.9 1.6 3.5 3.6 3.5h6.6c2 0 3.5-1.6 3.5-3.5V39h-6.5v2.6h3.2v2.2c0 .6-.5 1.1-1.1 1.1h-4.9c-.6 0-1.1-.5-1.1-1.1v-9.6c0-.6.5-1.1 1.1-1.1h4.9c.6 0 1.1.5 1.1 1.1v1.7h3.2v-2.3c0-1.9-1.6-3.5-3.5-3.5h-6.6c-2 0-3.6 1.6-3.6 3.5v10.8zm19.5 0c0 1.9 1.6 3.5 3.5 3.5h6.8c2 0 3.6-1.6 3.6-3.5V30.2H248v13.5c0 .6-.5 1.1-1.1 1.1H242c-.6 0-1.1-.5-1.1-1.1V30.2h-3.3v14.2zM263 33.1h5.8v14.5h3.3V33.1h5.8v-2.9H263v2.9zm19.3 14.5h12.1v-3.1h-8.8v-4.4h6.5v-2.7h-6.5v-4.3h8.5v-2.9h-11.9v17.4zm17.5 0h3.3v-7.4l7.2 7.4h4.2l-8.5-8.8 8.4-8.6h-3.9l-7.4 7.5v-7.5h-3.3v17.4zm19.2 0h3.3V35.2l7.7 7.7v4.7h3.3V30.2H330v8.3l-8.3-8.3H319v17.4zm20.8 0h3.4V30.2h-3.4v17.4zm9.8 0h3.3v-7.4l7.2 7.4h4.2l-8.5-8.8 8.4-8.6h-4l-7.4 7.5v-7.5h-3.3v17.4zm26.6-3.2c0 1.9 1.6 3.5 3.5 3.5h6.8c2 0 3.6-1.6 3.6-3.5V30.2h-3.3v13.5c0 .6-.5 1.1-1.1 1.1h-4.9c-.6 0-1.1-.5-1.1-1.1V30.2h-3.3v14.2zm19.9 3.2h3.3V35.2l7.7 7.7v4.7h3.3V30.2h-3.3v8.3l-8.3-8.3h-2.7v17.4zm20.8 0h3.4V30.2h-3.4v17.4zm8-17.4l6.6 17.4h2.8l6.7-17.4h-3.6l-4.5 12.3-4.4-12.3h-3.6zm20.5 17.4h12.1v-3.1h-8.8v-4.4h6.5v-2.7h-6.5v-4.3h8.5v-2.9h-11.9v17.4zm17.5 0h3.3v-6.3h2.3l4.4 6.3h3.8l-4.6-6.5h.2c1.6-.3 2.7-1.7 2.7-3.4v-4c0-1.9-1.6-3.5-3.5-3.5h-8.8v17.4zm3.3-9v-5.5h4.1c.9 0 1.5.7 1.5 1.5v2.6c0 .8-.6 1.4-1.5 1.4h-4.1zm14.9 5.8c0 1.9 1.6 3.5 3.5 3.5h6.3c2 0 3.6-1.6 3.6-3.5v-2.8c0-1.3-.8-2.5-2.1-2.9l-7.3-2c-.4-.1-.7-.6-.7-.9v-1.7c0-.6.6-1.1 1.2-1.1h4.6c.6 0 1.1.5 1.1 1.1v1.4h3.2v-2.1c0-1.9-1.6-3.5-3.6-3.5h-6.3c-1.9 0-3.5 1.6-3.5 3.5v2.8c0 1.3.8 2.5 2.1 2.8l7.3 2c.4.1.7.6.7.9v1.7c0 .6-.5 1.1-1.1 1.1h-4.6c-.6 0-1.1-.5-1.1-1.1v-1.4h-3.2v2.2zm19.3 3.2h3.4V30.2h-3.4v17.4zm8-14.5h5.8v14.5h3.3V33.1h5.8v-2.9h-14.8v2.9zm19.3 14.5h12.1v-3.1H531v-4.4h6.5v-2.7H531v-4.3h8.5v-2.9h-11.9v17.4zm17-3.2c0 1.9 1.6 3.5 3.5 3.5h6.3c2 0 3.6-1.6 3.6-3.5v-2.8c0-1.3-.8-2.5-2.1-2.9l-7.3-2c-.4-.1-.7-.6-.7-.9v-1.7c0-.6.5-1.1 1.2-1.1h4.6c.6 0 1.1.5 1.1 1.1v1.4h3.2v-2.1c0-1.9-1.6-3.5-3.6-3.5h-6.3c-1.9 0-3.5 1.6-3.5 3.5v2.8c0 1.3.8 2.5 2.1 2.8l7.3 2c.4.1.7.6.7.9v1.7c0 .6-.5 1.1-1.1 1.1H549c-.6 0-1.1-.5-1.1-1.1v-1.4h-3.2v2.2zm19.3 3.2h3.4V30.2H564v17.4zM228.2 27.8v-2.9h-6.8v2.9h3.4zM343.2 27.8v-2.9h-3.4v2.9h1.7zM420.3 27.8v-2.9h-3.4v2.9h1.7zM381.4 27.8v-2.9H378v2.9h1.7zM387.9 27.8v-2.9h-3.4v2.9h1.7zM503.8 27.8v-2.9h-3.4v2.9h1.7zM567.4 27.8v-2.9H564v2.9h1.7z"/><g><path class="st0" d="M100.9 66.2h2.1l4.5 11.6h-2.3l-1.1-3h-4.2l-1.1 3h-2.3l4.4-11.6zm2.6 6.7l-1.5-4-1.5 4h3zM109.2 66.2h1.8l5.5 5.5v-5.5h2.2v11.6h-2.2v-3.1l-5.1-5.1v8.3h-2.2V66.2zM121.6 66.2h2.2v5l4.9-5h2.6l-5.6 5.8 5.7 5.8h-2.8l-4.8-4.9v4.9h-2.2V66.2zM136.4 66.2h2.1l4.5 11.6h-2.3l-1.1-3h-4.2l-1.1 3H132l4.4-11.6zm2.5 6.7l-1.5-4-1.5 4h3zM144.6 66.2h5.8c.3 0 .6.1.9.2.3.1.5.3.7.5.2.2.4.5.5.7.1.3.2.6.2.9v2.7c0 .6-.2 1-.5 1.5-.3.4-.8.7-1.3.8h-.2l3 4.3h-2.5l-2.9-4.2h-1.5v4.2h-2.2V66.2zm5 5.5c.3 0 .5-.1.7-.3.2-.2.3-.4.3-.7V69c0-.3-.1-.5-.3-.7-.2-.2-.4-.3-.7-.3h-2.8v3.7h2.8zM159 66.2h2.1l4.5 11.6h-2.3l-1.1-3H158l-1.1 3h-2.3l4.4-11.6zm2.5 6.7l-1.5-4-1.5 4h3z"/></g><g><path class="st0" d="M173.7 66.1h2.2v5l4.9-5h2.6l-5.6 5.8 5.7 5.8h-2.8l-4.8-4.9v4.9h-2.2V66.1zM188.5 66.1h2.1l4.5 11.6h-2.3l-1.1-3h-4.2l-1.1 3H184l4.5-11.6zm2.5 6.8l-1.5-4-1.5 4h3zM196.7 66.1h1.6l4.1 8.1 4.1-8.1h1.6v11.6H206v-6.2l-3.1 6.2h-1l-3.1-6.2v6.2h-2.1V66.1zM211.1 66.1h5.8c.3 0 .6.1.9.2.3.1.5.3.8.5.2.2.4.5.5.7.1.3.2.6.2.9v2.8c0 .3-.1.6-.2.9-.1.3-.3.5-.5.7-.2.2-.5.4-.8.5-.3.1-.6.2-.9.2h-3.6v4.1h-2.2V66.1zm5 5.7c.3 0 .5-.1.7-.3s.3-.4.3-.7V69c0-.3-.1-.5-.3-.7-.2-.2-.4-.3-.7-.3h-2.8v3.8h2.8zM221.3 66.1h2.2v9c0 .2.1.4.2.5s.3.2.5.2h3.3c.2 0 .4-.1.5-.2s.2-.3.2-.5v-9h2.2v9.5c0 .3-.1.6-.2.9-.1.3-.3.5-.5.7-.2.2-.5.4-.8.5-.3.1-.6.2-.9.2h-4.5c-.3 0-.6-.1-.9-.2s-.5-.3-.7-.5c-.2-.2-.4-.5-.5-.7-.1-.3-.2-.6-.2-.9v-9.5zM233 74.2h2.1v1c0 .2.1.4.2.5.1.1.3.2.5.2h3.1c.2 0 .4-.1.5-.2.1-.1.2-.3.2-.5V74c0-.1 0-.3-.1-.4-.1-.1-.2-.2-.3-.2l-4.9-1.3c-.4-.1-.8-.3-1-.7-.2-.4-.4-.8-.4-1.2v-1.9c0-.3.1-.6.2-.9s.3-.5.5-.7c.2-.2.5-.4.7-.5.3-.1.6-.2.9-.2h4.2c.3 0 .6.1.9.2s.5.3.8.5c.2.2.4.5.5.7.1.3.2.6.2.9v1.4h-2.1v-1c0-.2-.1-.4-.2-.5-.1-.1-.3-.2-.5-.2h-3c-.2 0-.4.1-.5.2-.2.2-.2.3-.2.5v1.1c0 .1 0 .3.1.4.1.1.2.2.3.2l4.9 1.3c.4.1.8.4 1 .7.3.4.4.8.4 1.2v1.9c0 .3-.1.6-.2.9-.1.3-.3.5-.5.7-.2.2-.5.4-.8.5s-.6.2-.9.2h-4.2c-.3 0-.6-.1-.9-.2-.3-.1-.5-.3-.7-.5-.2-.2-.4-.5-.5-.7-.1-.3-.2-.6-.2-.9v-1.3zM244.4 66.1h2.2v9c0 .2.1.4.2.5s.3.2.5.2h3.3c.2 0 .4-.1.5-.2s.2-.3.2-.5v-9h2.2v9.5c0 .3-.1.6-.2.9-.1.3-.3.5-.5.7-.2.2-.5.4-.8.5-.3.1-.6.2-.9.2h-4.5c-.3 0-.6-.1-.9-.2s-.5-.3-.7-.5c-.2-.2-.4-.5-.5-.7-.1-.3-.2-.6-.2-.9v-9.5z"/></g><g><path class="st1" d="M44.7 7.8H39c-17.4 0-31.5 14-31.5 31.1C7.5 56.1 21.6 70 39 70h11.4c17.3 0 31.5-14 31.5-31.1 0-17.2-14.1-31.1-31.5-31.1h-5.7"/><path class="st2" d="M50.7 67.5c-1.3 0-2.6-.1-3.9-.3 12.4-3.5 21.5-14.9 21.5-28.4 0-13.5-9.1-24.9-21.5-28.4 1.3-.2 2.6-.3 3.9-.3 15.7 0 28.5 12.8 28.5 28.6S66.4 67.5 50.7 67.5M21.1 38.9c0-14.3 10.1-26.1 23.6-28.9v57.7C31.3 65 21.1 53.1 21.1 38.9M50.7 9.4c-2 0-4 .2-6 .6-1.9-.4-3.9-.6-5.9-.6-16.3 0-29.5 13.2-29.5 29.5s13.2 29.5 29.5 29.5c2 0 4-.2 5.9-.6 1.9.4 4 .6 6 .6C66.8 68.4 80 55.1 80 38.9 80 22.6 66.8 9.4 50.7 9.4"/></g></svg>